<?xml version="1.0" encoding="UTF-8"?>
<svg version="1.1" xmlns="http://www.w3.org/2000/svg" width="512" height="512">
<path d="M0 0 C14.46151389 11.41383948 24.59549302 25.82379502 28.9609375 43.86328125 C38.71228669 46.52375374 48.48184629 48.97234063 58.33984375 51.2109375 C59.64934893 51.51146991 60.9587492 51.81245978 62.26805115 52.11387634 C67.74310657 53.37395758 73.21910573 54.62979563 78.69750977 55.87524414 C82.0814846 56.6448691 85.46366644 57.42198326 88.84483147 58.20385551 C90.73460702 58.63860575 92.62626796 59.06513461 94.51795959 59.49147034 C95.67033615 59.7586235 96.82271271 60.02577667 98.01000977 60.30102539 C99.01733658 60.53100723 100.02466339 60.76098907 101.06251526 60.99794006 C105.17099999 62.2245526 108.80257654 63.69486586 111.84545898 66.76416016 C115.18705165 73.05241005 111.1133959 83.00314443 109.3984375 89.48828125 C109.16447266 90.39707031 108.93050781 91.30585937 108.68945312 92.2421875 C108.11981061 94.45100542 107.54359067 96.65786677 106.9609375 98.86328125 C108.05792969 98.82847656 109.15492188 98.79367188 110.28515625 98.7578125 C111.73956795 98.7296626 113.1939963 98.70236373 114.6484375 98.67578125 C115.36966797 98.65064453 116.09089844 98.62550781 116.83398438 98.59960938 C121.45726471 98.53627677 124.38957859 98.86433527 127.9609375 101.86328125 C129.518722 103.95124861 130.83723808 105.94187522 132.1484375 108.17578125 C132.5491748 108.84150146 132.94991211 109.50722168 133.36279297 110.19311523 C134.3151063 111.77669297 135.26294034 113.36296871 136.20751953 114.95117188 C137.9063528 117.77262595 139.6377719 120.57095546 141.38002014 123.36567688 C143.04288792 126.03807903 144.69154331 128.71909809 146.33828735 131.40145874 C147.16666869 132.7455142 147.99995265 134.08656094 148.83822632 135.42446899 C150.03222454 137.33405373 151.20546053 139.25505249 152.375 141.1796875 C153.0654541 142.29802979 153.7559082 143.41637207 154.46728516 144.56860352 C156.44164043 148.92360914 156.5805708 152.57063805 155.3359375 157.17578125 C153.3124381 159.65916687 150.99037483 160.07299325 147.9609375 160.86328125 C148.033125 161.53230469 148.1053125 162.20132813 148.1796875 162.890625 C149.05021998 171.89821807 149.05730829 180.82584266 148.9609375 189.86328125 C149.73953125 189.98960937 150.518125 190.1159375 151.3203125 190.24609375 C154.62337825 191.01811208 155.8282713 192.27361515 157.9609375 194.86328125 C158.88034237 197.62149585 159.15442001 199.5625767 159.30262852 202.42892742 C159.3533871 203.37106679 159.40414569 204.31320615 159.45644242 205.28389519 C159.50800285 206.32101468 159.55956329 207.35813417 159.61268616 208.42668152 C159.67071032 209.52712101 159.72873447 210.6275605 159.78851694 211.76134664 C159.98292328 215.46854758 160.17125564 219.17603238 160.35961914 222.88354492 C160.49735053 225.53468662 160.63540816 228.18580953 160.77384949 230.83691406 C161.11092571 237.30741688 161.44336146 243.77815019 161.77407748 250.2489809 C162.04347944 255.51908327 162.31438683 260.78910617 162.58636284 266.05907631 C162.62508241 266.80941411 162.66380197 267.55975191 162.70369486 268.33282721 C162.7823701 269.85742613 162.86104657 271.38202497 162.93972426 272.90662376 C163.67835425 287.22395456 164.41149902 301.54156242 165.14298319 315.85925982 C165.80984366 328.90876421 166.48345579 341.95790954 167.16034872 355.00689705 C167.85666025 368.43141482 168.54834489 381.85616386 169.23514646 395.28117162 C169.62024696 402.80725022 170.00708468 410.33322916 170.39875984 417.85896873 C170.73287745 424.27978761 171.06254288 430.70081752 171.38682777 437.12214079 C171.55187274 440.38800913 171.71941535 443.65371233 171.89113998 446.91923714 C172.54567311 459.38884639 173.10166637 471.8605245 173.29026794 484.34687805 C173.31901664 485.35160697 173.34776533 486.35633589 173.3773852 487.39151114 C173.38358942 488.31758793 173.38979365 489.24366473 173.39618587 490.19780445 C173.41548874 491.40977299 173.41548874 491.40977299 173.43518156 492.64622575 C172.74986951 495.85000833 171.60882832 496.95852592 168.9609375 498.86328125 C165.73722172 499.36467791 165.73722172 499.36467791 161.82691956 499.36664581 C161.10425537 499.37245958 160.38159119 499.37827334 159.6370281 499.38426328 C157.20242653 499.39892381 154.76882363 499.38495062 152.33422852 499.37121582 C150.57645685 499.37582236 148.81868902 499.38217361 147.0609293 499.3901248 C142.22051449 499.40687521 137.38041375 499.39854589 132.53999758 499.38617992 C127.32383338 499.37715506 122.10772439 499.39108639 116.89157104 499.40209961 C106.66911306 499.41991688 96.44677233 499.41603058 86.22430968 499.40444905 C77.91874587 499.3954276 69.613215 499.39418513 61.30764771 499.39854431 C60.12704067 499.39915724 58.94643363 499.39977018 57.73005062 499.40040168 C55.33191767 499.40168054 52.93378473 499.40297739 50.5356518 499.40429205 C28.03090681 499.41570724 5.52622692 499.40256941 -16.9785074 499.38109058 C-36.30243598 499.36321876 -55.62626846 499.36632261 -74.95019531 499.38476562 C-97.37259664 499.40615575 -119.79494086 499.41460852 -142.21735096 499.40231657 C-144.60682487 499.40104233 -146.99629878 499.39978485 -149.38577271 499.39854431 C-150.56154088 499.39792721 -151.73730905 499.39731011 -152.94870657 499.39667431 C-161.24746501 499.39321583 -169.54618733 499.39906046 -177.84494019 499.40846252 C-187.95381993 499.41966325 -198.06257539 499.41668308 -208.17144084 499.39533955 C-213.33241288 499.38480317 -218.49317745 499.38075126 -223.6541481 499.39393616 C-228.37415559 499.40581244 -233.09376234 499.39937663 -237.81373322 499.37802595 C-239.52564792 499.37353958 -241.23759614 499.37587144 -242.94948947 499.3855291 C-245.26849589 499.39761319 -247.58611197 499.3853014 -249.90504456 499.36664581 C-251.19544427 499.3659964 -252.48584398 499.36534699 -253.81534672 499.36467791 C-257.0390625 498.86328125 -257.0390625 498.86328125 -259.45733219 497.11582583 C-261.25299653 494.55861747 -261.52673439 493.4073708 -261.48076534 490.31920338 C-261.47552823 489.41131823 -261.47029112 488.50343308 -261.46489531 487.56803626 C-261.43683615 486.57627475 -261.40877699 485.58451325 -261.37986755 484.56269836 C-261.36410752 483.50558287 -261.34834748 482.44846738 -261.33210987 481.35931808 C-261.08296129 468.18334646 -260.39630035 455.02008625 -259.70103371 441.86154306 C-259.5022294 438.07258349 -259.3106813 434.28325527 -259.1181488 430.49397278 C-258.74186114 423.10983114 -258.35913641 415.72603727 -257.97412736 408.3423458 C-257.52504719 399.72482755 -257.08266171 391.10696928 -256.64052206 382.48909263 C-255.85134739 367.11120297 -255.05640721 351.73361696 -254.25805664 336.35620117 C-253.48484414 321.46285119 -252.71545785 306.56931028 -251.95043945 291.67553711 C-251.90321293 290.75611929 -251.8559864 289.83670147 -251.80732877 288.8894225 C-251.76018152 287.971526 -251.71303428 287.05362951 -251.66445833 286.10791796 C-251.56951217 284.25943858 -251.47456498 282.41095925 -251.37961674 280.56247997 C-251.33278297 279.65068773 -251.28594921 278.73889549 -251.23769623 277.79947318 C-250.50588359 263.55486058 -249.77077796 249.31041768 -249.03526079 235.06599596 C-248.7695341 229.91915846 -248.50425268 224.77229823 -248.23928959 219.62542137 C-247.81940468 211.46968184 -247.39807952 203.31401945 -246.97384722 195.15850481 C-246.78026542 191.43661412 -246.58733457 187.71469303 -246.39627457 183.99267197 C-246.18879463 179.95142554 -245.97793148 175.91036258 -245.76673889 171.86930847 C-245.70739656 170.70374473 -245.64805423 169.53818099 -245.58691365 168.33729714 C-245.31336989 163.15352798 -245.00509822 157.97350094 -244.60076046 152.79816151 C-244.53440897 151.94057297 -244.46805748 151.08298442 -244.39969534 150.19940835 C-243.81163289 146.39002526 -242.15002537 143.49306511 -240.1015625 140.28125 C-239.50311523 139.28899162 -239.50311523 139.28899162 -238.89257812 138.27668762 C-237.62702289 136.18908427 -236.33389221 134.12032239 -235.0390625 132.05078125 C-234.20257126 130.6788642 -233.36792373 129.30582123 -232.53515625 127.93164062 C-230.47875472 124.55170728 -228.38694867 121.19557944 -226.27978516 117.84710693 C-225.03254626 115.85286226 -223.80618645 113.84685804 -222.58203125 111.83837891 C-221.79743511 110.57159302 -221.01230229 109.30513934 -220.2265625 108.0390625 C-219.53949219 106.92055908 -218.85242188 105.80205566 -218.14453125 104.6496582 C-215.97145211 101.77380567 -214.26961424 100.40144971 -211.0390625 98.86328125 C-208.29054057 98.50352707 -205.8286037 98.72144017 -203.0390625 98.86328125 C-203.16848236 98.25737656 -203.29790222 97.65147186 -203.4312439 97.02720642 C-204.68424792 90.99292269 -205.61868685 84.98736291 -206.328125 78.8671875 C-206.43627533 77.95299545 -206.54442566 77.03880341 -206.65585327 76.09690857 C-206.88138743 74.17870174 -207.10480301 72.26024472 -207.32617188 70.34155273 C-207.66290989 67.43572748 -208.01077548 64.53137631 -208.359375 61.62695312 C-211.25748911 37.03525913 -211.25748911 37.03525913 -208.6015625 32.30078125 C-202.62775892 28.94962314 -195.15563052 28.50181019 -188.43334961 27.71826172 C-187.62558578 27.62043396 -186.81782196 27.5226062 -185.98558044 27.42181396 C-183.34638148 27.10345542 -180.70645269 26.79171496 -178.06640625 26.48046875 C-176.21510217 26.25938838 -174.36383009 26.03803988 -172.5125885 25.81643677 C-168.64570302 25.35462224 -164.77844432 24.89610833 -160.91088867 24.43994141 C-155.96865645 23.85674151 -151.02746482 23.26520073 -146.08652401 22.67117119 C-142.26839532 22.21308853 -138.44974367 21.75949287 -134.63092232 21.30722427 C-132.80920503 21.09092605 -130.98765179 20.8732413 -129.16627312 20.65410995 C-126.61649113 20.34801717 -124.0660623 20.04800402 -121.51538086 19.74951172 C-120.77282043 19.65914642 -120.03026001 19.56878113 -119.26519775 19.47567749 C-114.49206575 18.92540236 -109.8442653 18.78658394 -105.0390625 18.86328125 C-104.79027344 18.30125 -104.54148438 17.73921875 -104.28515625 17.16015625 C-96.3905236 2.60829419 -79.50724711 -6.65412857 -64.2890625 -11.51171875 C-42.12791873 -16.93800704 -18.71386256 -13.15743293 0 0 Z " fill="#FEE502" transform="translate(300.0390625,13.13671875)"/>
<path d="M0 0 C14.46151389 11.41383948 24.59549302 25.82379502 28.9609375 43.86328125 C38.71228669 46.52375374 48.48184629 48.97234063 58.33984375 51.2109375 C59.64934893 51.51146991 60.9587492 51.81245978 62.26805115 52.11387634 C67.74310657 53.37395758 73.21910573 54.62979563 78.69750977 55.87524414 C82.0814846 56.6448691 85.46366644 57.42198326 88.84483147 58.20385551 C90.73460702 58.63860575 92.62626796 59.06513461 94.51795959 59.49147034 C95.67033615 59.7586235 96.82271271 60.02577667 98.01000977 60.30102539 C99.01733658 60.53100723 100.02466339 60.76098907 101.06251526 60.99794006 C105.17099999 62.2245526 108.80257654 63.69486586 111.84545898 66.76416016 C115.18705165 73.05241005 111.1133959 83.00314443 109.3984375 89.48828125 C109.16447266 90.39707031 108.93050781 91.30585937 108.68945312 92.2421875 C108.11981061 94.45100542 107.54359067 96.65786677 106.9609375 98.86328125 C108.05792969 98.82847656 109.15492188 98.79367188 110.28515625 98.7578125 C111.73956795 98.7296626 113.1939963 98.70236373 114.6484375 98.67578125 C115.36966797 98.65064453 116.09089844 98.62550781 116.83398438 98.59960938 C121.45726471 98.53627677 124.38957859 98.86433527 127.9609375 101.86328125 C129.518722 103.95124861 130.83723808 105.94187522 132.1484375 108.17578125 C132.5491748 108.84150146 132.94991211 109.50722168 133.36279297 110.19311523 C134.3151063 111.77669297 135.26294034 113.36296871 136.20751953 114.95117188 C137.9063528 117.77262595 139.6377719 120.57095546 141.38002014 123.36567688 C143.04288792 126.03807903 144.69154331 128.71909809 146.33828735 131.40145874 C147.16666869 132.7455142 147.99995265 134.08656094 148.83822632 135.42446899 C150.03222454 137.33405373 151.20546053 139.25505249 152.375 141.1796875 C153.0654541 142.29802979 153.7559082 143.41637207 154.46728516 144.56860352 C156.43951767 148.91892678 156.68953509 152.61677202 155.2109375 157.17578125 C153.62050694 159.32286251 152.45503839 159.88639696 149.9609375 160.86328125 C147.04680848 161.10526621 147.04680848 161.10526621 143.58099747 161.09375954 C142.61929908 161.09468851 142.61929908 161.09468851 141.63817245 161.09563625 C139.48116525 161.09525369 137.32449553 161.0804817 135.1675415 161.06582642 C133.6090411 161.06256894 132.05053865 161.06019486 130.49203563 161.05863035 C126.20261793 161.05175798 121.91333411 161.03231505 117.62396789 161.0108695 C113.00097403 160.98994072 108.37795532 160.98059862 103.75492859 160.96986389 C95.74297269 160.94966733 87.73106922 160.92209634 79.71915436 160.88954544 C68.13521157 160.84249268 56.55125534 160.80651681 44.9672657 160.77326219 C26.17394804 160.71900984 7.38067174 160.65577374 -11.41259766 160.58691406 C-29.6707223 160.52003437 -47.92885337 160.45736951 -66.18701172 160.40039062 C-67.31205816 160.39687818 -68.4371046 160.39336574 -69.59624335 160.38974686 C-75.24015546 160.37215239 -80.88406783 160.35464096 -86.52798033 160.33717084 C-133.36505402 160.19208421 -180.20206994 160.03242881 -227.0390625 159.86328125 C-227.01697393 161.34674608 -227.01697393 161.34674608 -226.99443913 162.8601799 C-226.85582547 176.80922456 -227.57375412 190.69223807 -228.30834961 204.61816406 C-228.4450547 207.2747251 -228.58139119 209.93130269 -228.7172699 212.58790588 C-229.00893356 218.27625288 -229.30391901 223.96441946 -229.60124016 229.65247345 C-230.03233169 237.90003759 -230.45808571 246.14787084 -230.88259656 254.395776 C-231.57336463 267.81432889 -232.26813821 281.23267115 -232.96557617 294.65087891 C-233.63958648 307.61855911 -234.31205339 320.58631759 -234.98217773 333.55419922 C-235.02343027 334.35248112 -235.0646828 335.15076302 -235.10718542 335.97323528 C-235.51844704 343.93218683 -235.92946372 351.89115102 -236.34043251 359.8501177 C-236.5010271 362.96021229 -236.6616339 366.07030624 -236.82224833 369.18039981 C-236.90159499 370.71685822 -236.98093748 372.25331685 -237.06027574 373.7897757 C-237.56138163 383.49356633 -238.06375155 393.19729037 -238.56759059 402.90093946 C-238.82271215 407.81455591 -239.07738267 412.7281957 -239.3319382 417.6418415 C-239.49978257 420.88108802 -239.66794953 424.12031727 -239.83660126 427.35952187 C-240.02081235 430.89787188 -240.20428839 434.43625888 -240.38731384 437.97467041 C-240.44438598 439.0749065 -240.50145811 440.17514258 -240.5602597 441.30871916 C-240.83075693 446.57965956 -241.08667049 451.8506581 -241.31256294 457.12371063 C-241.35540084 458.11758529 -241.39823875 459.11145996 -241.44237477 460.13545203 C-241.5201155 461.97011542 -241.59522168 463.80489356 -241.66691583 465.63980317 C-241.70153706 466.46179003 -241.73615829 467.2837769 -241.77182865 468.13067245 C-241.79958411 468.83163851 -241.82733957 469.53260456 -241.85593611 470.254812 C-242.1283287 474.13479721 -242.60953521 477.99753563 -243.0390625 481.86328125 C-111.6990625 481.86328125 19.6409375 481.86328125 154.9609375 481.86328125 C154.3009375 471.63328125 153.6409375 461.40328125 152.9609375 450.86328125 C152.50205741 442.6469255 152.05478766 434.43083016 151.63232422 426.21264648 C151.51395493 423.93837207 151.3954296 421.66410577 151.27676392 419.3898468 C150.96086224 413.32438467 150.64750775 407.25879388 150.33500051 401.193156 C150.13871407 397.38479911 149.94192998 393.57646822 149.74499893 389.76814461 C149.19626164 379.15471338 148.64814706 368.5412508 148.10285759 357.92764187 C148.0683165 357.25534395 148.0337754 356.58304603 147.99818761 355.89037544 C147.9282239 354.52858071 147.8582603 353.16678598 147.7882968 351.80499124 C147.73622709 350.79151691 147.73622709 350.79151691 147.68310547 349.75756836 C147.64834909 349.08106588 147.61359272 348.4045634 147.57778312 347.70756084 C147.01304734 336.71814676 146.44312891 325.72900802 145.87100159 314.73997652 C145.2790582 303.36892224 144.6915125 291.99764934 144.10799229 280.62615925 C143.78207549 274.27651766 143.45440877 267.92697891 143.12215805 261.57766533 C142.81015385 255.61285764 142.50366144 249.64779054 142.20116806 243.68249321 C142.09025472 241.51304143 141.97747175 239.34368416 141.86252594 237.17444229 C141.50455978 230.40571103 141.19410847 223.6375091 140.9609375 216.86328125 C140.90718138 215.33832594 140.90718138 215.33832594 140.85233927 213.78256345 C140.75751712 210.73680185 140.69518223 207.6921799 140.64407349 204.645401 C140.61457544 203.71990021 140.5850774 202.79439942 140.55468547 201.84085315 C140.50118809 195.51351336 140.50118809 195.51351336 142.76589775 192.31049252 C145.87877996 190.2581387 148.25115011 189.92836524 151.9609375 189.86328125 C155.20148064 191.15949851 156.55683293 192.0181854 158.06861007 195.17973489 C158.94109976 197.80362209 159.28459919 199.92435381 159.42567635 202.67502308 C159.47842598 203.62114454 159.53117562 204.567266 159.58552372 205.54205781 C159.63417132 206.57335162 159.68281891 207.60464542 159.73294067 208.66719055 C159.82125855 210.32041306 159.82125855 210.32041306 159.91136062 212.007034 C160.10690824 215.70783989 160.28999461 219.40915707 160.47314453 223.1105957 C160.61063967 225.7620547 160.74881513 228.41347027 160.88781738 231.06484985 C161.22505318 237.52821892 161.55294147 243.99203002 161.87760772 250.45604137 C162.25693693 258.0023711 162.64508151 265.54823975 163.03346632 273.09410789 C163.72736606 286.58247265 164.41259889 300.07126415 165.09326172 313.56030273 C165.75143683 326.60364627 166.41662108 339.64660819 167.08935547 352.68920898 C167.8230262 366.91339818 168.55276808 381.13777885 169.2758168 395.36251229 C169.35329858 396.88675232 169.43078179 398.41099228 169.50826645 399.93523216 C169.54637402 400.68498224 169.58448159 401.43473231 169.62374393 402.20720208 C169.89019607 407.44494222 170.15926668 412.68254395 170.4293251 417.92009926 C170.75990134 424.33354541 171.08585461 430.74720866 171.40634097 437.16116718 C171.56942101 440.42299416 171.73494279 443.68466119 171.90459824 446.94615364 C172.55147208 459.40618891 173.10051906 471.86854664 173.28927612 484.34489441 C173.33248889 485.85216723 173.33248889 485.85216723 173.37657464 487.38989002 C173.38286224 488.31613357 173.38914984 489.24237712 173.39562798 490.19668865 C173.40859755 491.00486969 173.42156713 491.81305072 173.43492973 492.64572209 C172.75002996 495.85000617 171.60919557 496.95836556 168.9609375 498.86328125 C165.73722172 499.36467791 165.73722172 499.36467791 161.82691956 499.36664581 C161.10425537 499.37245958 160.38159119 499.37827334 159.6370281 499.38426328 C157.20242653 499.39892381 154.76882363 499.38495062 152.33422852 499.37121582 C150.57645685 499.37582236 148.81868902 499.38217361 147.0609293 499.3901248 C142.22051449 499.40687521 137.38041375 499.39854589 132.53999758 499.38617992 C127.32383338 499.37715506 122.10772439 499.39108639 116.89157104 499.40209961 C106.66911306 499.41991688 96.44677233 499.41603058 86.22430968 499.40444905 C77.91874587 499.3954276 69.613215 499.39418513 61.30764771 499.39854431 C60.12704067 499.39915724 58.94643363 499.39977018 57.73005062 499.40040168 C55.33191767 499.40168054 52.93378473 499.40297739 50.5356518 499.40429205 C28.03090681 499.41570724 5.52622692 499.40256941 -16.9785074 499.38109058 C-36.30243598 499.36321876 -55.62626846 499.36632261 -74.95019531 499.38476562 C-97.37259664 499.40615575 -119.79494086 499.41460852 -142.21735096 499.40231657 C-144.60682487 499.40104233 -146.99629878 499.39978485 -149.38577271 499.39854431 C-150.56154088 499.39792721 -151.73730905 499.39731011 -152.94870657 499.39667431 C-161.24746501 499.39321583 -169.54618733 499.39906046 -177.84494019 499.40846252 C-187.95381993 499.41966325 -198.06257539 499.41668308 -208.17144084 499.39533955 C-213.33241288 499.38480317 -218.49317745 499.38075126 -223.6541481 499.39393616 C-228.37415559 499.40581244 -233.09376234 499.39937663 -237.81373322 499.37802595 C-239.52564792 499.37353958 -241.23759614 499.37587144 -242.94948947 499.3855291 C-245.26849589 499.39761319 -247.58611197 499.3853014 -249.90504456 499.36664581 C-251.19544427 499.3659964 -252.48584398 499.36534699 -253.81534672 499.36467791 C-257.0390625 498.86328125 -257.0390625 498.86328125 -259.45733219 497.11582583 C-261.25299653 494.55861747 -261.52673439 493.4073708 -261.48076534 490.31920338 C-261.47552823 489.41131823 -261.47029112 488.50343308 -261.46489531 487.56803626 C-261.43683615 486.57627475 -261.40877699 485.58451325 -261.37986755 484.56269836 C-261.36410752 483.50558287 -261.34834748 482.44846738 -261.33210987 481.35931808 C-261.08296129 468.18334646 -260.39630035 455.02008625 -259.70103371 441.86154306 C-259.5022294 438.07258349 -259.3106813 434.28325527 -259.1181488 430.49397278 C-258.74186114 423.10983114 -258.35913641 415.72603727 -257.97412736 408.3423458 C-257.52504719 399.72482755 -257.08266171 391.10696928 -256.64052206 382.48909263 C-255.85134739 367.11120297 -255.05640721 351.73361696 -254.25805664 336.35620117 C-253.48484414 321.46285119 -252.71545785 306.56931028 -251.95043945 291.67553711 C-251.90321293 290.75611929 -251.8559864 289.83670147 -251.80732877 288.8894225 C-251.76018152 287.971526 -251.71303428 287.05362951 -251.66445833 286.10791796 C-251.56951217 284.25943858 -251.47456498 282.41095925 -251.37961674 280.56247997 C-251.33278297 279.65068773 -251.28594921 278.73889549 -251.23769623 277.79947318 C-250.50588359 263.55486058 -249.77077796 249.31041768 -249.03526079 235.06599596 C-248.7695341 229.91915846 -248.50425268 224.77229823 -248.23928959 219.62542137 C-247.81940468 211.46968184 -247.39807952 203.31401945 -246.97384722 195.15850481 C-246.78026542 191.43661412 -246.58733457 187.71469303 -246.39627457 183.99267197 C-246.18879463 179.95142554 -245.97793148 175.91036258 -245.76673889 171.86930847 C-245.70739656 170.70374473 -245.64805423 169.53818099 -245.58691365 168.33729714 C-245.31336989 163.15352798 -245.00509822 157.97350094 -244.60076046 152.79816151 C-244.53440897 151.94057297 -244.46805748 151.08298442 -244.39969534 150.19940835 C-243.81163289 146.39002526 -242.15002537 143.49306511 -240.1015625 140.28125 C-239.50311523 139.28899162 -239.50311523 139.28899162 -238.89257812 138.27668762 C-237.62702289 136.18908427 -236.33389221 134.12032239 -235.0390625 132.05078125 C-234.20257126 130.6788642 -233.36792373 129.30582123 -232.53515625 127.93164062 C-230.47875472 124.55170728 -228.38694867 121.19557944 -226.27978516 117.84710693 C-225.03254626 115.85286226 -223.80618645 113.84685804 -222.58203125 111.83837891 C-221.79743511 110.57159302 -221.01230229 109.30513934 -220.2265625 108.0390625 C-219.53949219 106.92055908 -218.85242188 105.80205566 -218.14453125 104.6496582 C-215.97145211 101.77380567 -214.26961424 100.40144971 -211.0390625 98.86328125 C-208.29054057 98.50352707 -205.8286037 98.72144017 -203.0390625 98.86328125 C-203.16848236 98.25737656 -203.29790222 97.65147186 -203.4312439 97.02720642 C-204.68424792 90.99292269 -205.61868685 84.98736291 -206.328125 78.8671875 C-206.43627533 77.95299545 -206.54442566 77.03880341 -206.65585327 76.09690857 C-206.88138743 74.17870174 -207.10480301 72.26024472 -207.32617188 70.34155273 C-207.66290989 67.43572748 -208.01077548 64.53137631 -208.359375 61.62695312 C-211.25748911 37.03525913 -211.25748911 37.03525913 -208.6015625 32.30078125 C-202.62775892 28.94962314 -195.15563052 28.50181019 -188.43334961 27.71826172 C-187.62558578 27.62043396 -186.81782196 27.5226062 -185.98558044 27.42181396 C-183.34638148 27.10345542 -180.70645269 26.79171496 -178.06640625 26.48046875 C-176.21510217 26.25938838 -174.36383009 26.03803988 -172.5125885 25.81643677 C-168.64570302 25.35462224 -164.77844432 24.89610833 -160.91088867 24.43994141 C-155.96865645 23.85674151 -151.02746482 23.26520073 -146.08652401 22.67117119 C-142.26839532 22.21308853 -138.44974367 21.75949287 -134.63092232 21.30722427 C-132.80920503 21.09092605 -130.98765179 20.8732413 -129.16627312 20.65410995 C-126.61649113 20.34801717 -124.0660623 20.04800402 -121.51538086 19.74951172 C-120.77282043 19.65914642 -120.03026001 19.56878113 -119.26519775 19.47567749 C-114.49206575 18.92540236 -109.8442653 18.78658394 -105.0390625 18.86328125 C-104.79027344 18.30125 -104.54148438 17.73921875 -104.28515625 17.16015625 C-96.3905236 2.60829419 -79.50724711 -6.65412857 -64.2890625 -11.51171875 C-42.12791873 -16.93800704 -18.71386256 -13.15743293 0 0 Z " fill="#602F75" transform="translate(300.0390625,13.13671875)"/>
<path d="M0 0 C62.04 0 124.08 0 188 0 C188.61376452 7.36517421 189.14362386 14.41141099 189.0625 21.75 C189.05798828 22.554375 189.05347656 23.35875 189.04882812 24.1875 C189.03729518 26.12503404 189.01937471 28.06252851 189 30 C188.21625 30.28875 187.4325 30.5775 186.625 30.875 C183.90328368 31.84912254 183.90328368 31.84912254 182 34 C181.70275228 35.90659488 181.70275228 35.90659488 181.76273346 38.11021233 C181.76297209 39.39078677 181.76297209 39.39078677 181.76321554 40.69723141 C181.77549138 41.63180294 181.78776721 42.56637448 181.80041504 43.52926636 C181.81113029 45.00131509 181.81113029 45.00131509 181.82206202 46.50310218 C181.95354529 58.19381411 182.56717113 69.85915949 183.19335938 81.53173828 C183.32193359 84.00806649 183.44999555 86.48442134 183.57759094 88.96080017 C183.8509442 94.24532787 184.12766988 99.52966165 184.407547 104.81384659 C184.81280607 112.46646221 185.21102461 120.11943251 185.6075415 127.77250551 C186.25223728 140.21314055 186.90151251 152.65353177 187.55419922 165.09375 C187.59307721 165.83478678 187.6319552 166.57582356 187.67201132 167.339316 C187.71093891 168.08128705 187.74986651 168.8232581 187.78997374 169.58771312 C187.86875222 171.08925743 187.94752969 172.59080178 188.02630615 174.09234619 C188.06535687 174.83667723 188.10440759 175.58100827 188.14464167 176.3478948 C188.57934774 184.63519861 189.01278006 192.9225689 189.44580078 201.20996094 C189.48463172 201.95310606 189.52346267 202.69625119 189.5634703 203.46191587 C190.21196209 215.87461615 190.85794303 228.28744631 191.50257158 240.70034778 C191.89903814 248.33168711 192.29798897 255.96288913 192.70024073 263.59392576 C193.00815913 269.43769132 193.31300992 275.28161431 193.61678123 281.125597 C193.74145716 283.51366807 193.86720256 285.9016836 193.99411964 288.28963661 C194.16778175 291.55965742 194.33757071 294.82985837 194.50646973 298.10012817 C194.55705205 299.03457736 194.60763438 299.96902655 194.65974951 300.93179238 C195.00088204 307.64853776 195 314.25044105 195 321 C130.65 321 66.3 321 0 321 C0 272.16 0 223.32 0 173 C4.95 172.01 9.9 171.02 15 170 C36.16504922 162.74901091 50.66006328 151.8118861 61.5234375 132.2578125 C69.20304907 116.57278765 69.55135282 101.58197716 69.18896484 84.49755859 C69.13812206 81.71355983 69.13627504 78.93281895 69.140625 76.1484375 C69.09267792 74.87968277 69.09267792 74.87968277 69.04376221 73.58529663 C69.06379615 71.14614826 69.163707 69.29463333 70 67 C71.89239529 65.28598351 73.72175762 64.18535106 76.0055542 63.05288696 C80.57988849 60.63805225 83.66048715 55.94072424 85.48828125 51.17578125 C87.07863456 44.41374466 87.14494431 37.31860424 83.9375 31.0625 C79.78981042 24.69492023 74.33799123 20.16530889 67 18 C58.5941954 16.92843851 51.96635507 18.07015514 45 23 C39.98491118 27.46374713 36.5177921 32.79373821 35.68359375 39.5703125 C35.3342478 47.66161546 37.44956923 53.87153209 42.3125 60.3125 C44.52346457 62.52346457 46.01581321 63.70974958 48.66796875 65.16796875 C50.31732422 66.07482422 50.31732422 66.07482422 52 67 C52.15008601 72.99151051 52.25802352 78.9818898 52.32958984 84.97485352 C52.35947117 87.00662331 52.40019234 89.03826746 52.45263672 91.06958008 C52.88240972 108.16359072 50.7519144 121.09569185 40 135 C39.38898438 135.81339844 38.77796875 136.62679687 38.1484375 137.46484375 C28.37597642 148.99634782 14.60337489 154.17457814 0 156 C0 104.52 0 53.04 0 0 Z " fill="#FEFEFE" transform="translate(260,174)"/>
<path d="M0 0 C15.84 0 31.68 0 48 0 C48 105.93 48 211.86 48 321 C26.88 321 5.76 321 -16 321 C-14.84358254 285.15105875 -14.84358254 285.15105875 -13.99822998 269.00688171 C-13.9364431 267.81988867 -13.87465622 266.63289562 -13.81099701 265.40993309 C-13.74703987 264.18233583 -13.68308273 262.95473858 -13.6171875 261.68994141 C-13.48048258 259.02334318 -13.34401206 256.35673387 -13.20782471 253.69010925 C-12.880495 247.29098817 -12.55011268 240.89202848 -12.21862173 234.49312176 C-11.83106577 227.00929865 -11.44683476 219.52530582 -11.06272388 212.04130523 C-10.37685574 198.67975863 -9.68829062 185.31835247 -8.99804688 171.95703125 C-8.33096772 159.04403318 -7.66549643 146.1309537 -7.00195312 133.21777344 C-6.96096331 132.42007993 -6.9199735 131.62238642 -6.87774158 130.80052038 C-6.71289084 127.59232401 -6.54804394 124.38412745 -6.38320386 121.17593054 C-5.70802176 108.03601654 -5.03162993 94.89616477 -4.35501862 81.75632429 C-4.20179564 78.78070512 -4.04861472 75.8050838 -3.89546967 72.82946062 C-3.49350305 65.01969374 -3.09112314 57.20994849 -2.6876111 49.4002613 C-2.52111337 46.17778087 -2.35485364 42.95528854 -2.18900299 39.73277473 C-2.0082592 36.22177259 -1.82673478 32.7108116 -1.64501953 29.19985962 C-1.59414122 28.20829475 -1.5432629 27.21672988 -1.49084282 26.19511759 C-1.03730269 17.46025674 -0.51366514 8.73230737 0 0 Z " fill="#FEFEFE" transform="translate(73,174)"/>
<path d="M0 0 C0.72165091 5.61812909 1.43330893 11.23740693 2.13623047 16.85791016 C2.37608349 18.76482214 2.61853734 20.67140904 2.86376953 22.57763672 C5.47322408 42.88877885 5.47322408 42.88877885 5 53 C-5.61120867 56.15945002 -16.29823486 58.79037899 -27.07714844 61.31152344 C-30.09820353 62.0231318 -33.11586495 62.74774399 -36.1328125 63.4765625 C-37.16986328 63.72696289 -38.20691406 63.97736328 -39.27539062 64.23535156 C-41.37854328 64.74392739 -43.48140989 65.2536876 -45.58398438 65.76464844 C-50.82182988 67.02934886 -56.06300695 68.24138581 -61.3359375 69.3515625 C-62.34213135 69.56683594 -63.3483252 69.78210938 -64.38500977 70.00390625 C-66.2864756 70.40731957 -68.19055828 70.79865648 -70.09741211 71.17578125 C-76.48812037 72.4898859 -76.48812037 72.4898859 -81 77 C-82.56466378 86.26491925 -77.72344793 98.04588382 -75.44311523 107.01977539 C-75 109 -75 109 -75 111 C-88.86 111 -102.72 111 -117 111 C-118.27124731 104.00813981 -119.41556603 97.20874009 -120.1484375 90.171875 C-120.24587753 89.27174683 -120.34331757 88.37161865 -120.44371033 87.44421387 C-120.65070673 85.53137936 -120.85609573 83.6183703 -121.05996704 81.7052002 C-122.77501317 65.61702751 -124.59546451 49.55515182 -126.83154297 33.53027344 C-127.68081275 27.28226368 -128.18113323 21.30611971 -128 15 C-102.2194544 11.15635502 -76.34218642 7.77037018 -50.41333008 5.1003418 C-43.91322313 4.42884117 -37.42182701 3.70643153 -30.93359375 2.9296875 C-29.77276527 2.79098991 -29.77276527 2.79098991 -28.58848572 2.64949036 C-24.78842138 2.19445829 -20.98899352 1.73468626 -17.19018555 1.26928711 C-15.80649009 1.1026003 -14.42278297 0.9360103 -13.0390625 0.76953125 C-11.82428223 0.62104736 -10.60950195 0.47256348 -9.35791016 0.31958008 C-6.21289365 0.02026158 -3.15662753 -0.05930342 0 0 Z " fill="#E93357" transform="translate(237,45)"/>
<path d="M0 0 C6.7756303 3.96908672 11.21116155 9.72952155 13.25390625 17.3203125 C14.43611523 25.75421575 12.73377191 32.41989894 7.828125 39.328125 C5.03829711 42.77395893 2.3205025 45.39997538 -1.74609375 47.3203125 C-2.40609375 47.3203125 -3.06609375 47.3203125 -3.74609375 47.3203125 C-3.72650823 53.34919646 -3.67429211 59.3766542 -3.59350586 65.4050293 C-3.5704939 67.45019738 -3.55597014 69.49548115 -3.55053711 71.54077148 C-3.49138021 90.15699379 -0.32881972 104.81396835 12.25390625 119.3203125 C18.64724548 124.80692634 25.25312572 129.57481069 33.25390625 132.3203125 C34.47787109 132.76503906 34.47787109 132.76503906 35.7265625 133.21875 C49.45126903 137.62520953 63.16848167 135.78805583 76.25390625 130.3203125 C80.16916216 128.2712066 83.73865385 125.99262172 87.25390625 123.3203125 C88.094375 122.69382812 88.93484375 122.06734375 89.80078125 121.421875 C97.1699133 115.10882876 101.79887718 106.25250007 105.25390625 97.3203125 C105.59615234 96.48717529 105.93839844 95.65403809 106.29101562 94.7956543 C107.56540541 90.19602482 107.60903447 85.86177966 107.66796875 81.109375 C107.6873349 80.14123871 107.70670105 79.17310242 107.72665405 78.17562866 C107.78618955 75.0989448 107.83273095 72.02222299 107.87890625 68.9453125 C107.91710998 66.85284873 107.9561631 64.76040028 107.99609375 62.66796875 C108.0918697 57.55220854 108.17599667 52.43637474 108.25390625 47.3203125 C107.07453491 46.86325928 107.07453491 46.86325928 105.87133789 46.39697266 C99.52897824 43.78809232 95.76668806 39.29414022 92.98046875 33.15234375 C90.57180651 27.07888895 90.14032737 20.91602747 92.08984375 14.62109375 C95.51203879 7.12212274 100.50709423 2.5539889 107.50390625 -1.6171875 C114.74528658 -3.66891193 121.62418713 -3.81215222 128.56640625 -0.6796875 C133.52410584 2.13392658 136.94434579 5.72370074 140.25390625 10.3203125 C140.89328125 11.2071875 141.53265625 12.0940625 142.19140625 13.0078125 C144.49876504 20.20134283 144.38507665 27.77711844 141.25390625 34.6953125 C138.35473829 39.75853176 133.97513318 45.30387616 128.13110352 46.90014648 C127.20189087 47.10812866 127.20189087 47.10812866 126.25390625 47.3203125 C126.27485352 48.51406494 126.29580078 49.70781738 126.31738281 50.93774414 C126.39071107 55.43859484 126.43603756 59.93939478 126.47363281 64.44067383 C126.49353971 66.37533496 126.52067534 68.30993762 126.55566406 70.24438477 C126.82373998 85.46557745 125.77803169 98.91087268 118.50390625 112.6328125 C118.16174072 113.29595459 117.8195752 113.95909668 117.46704102 114.64233398 C114.38199186 120.43393758 110.68488982 125.47504998 106.25390625 130.3203125 C105.42632812 131.26777344 105.42632812 131.26777344 104.58203125 132.234375 C93.46437317 144.25203397 74.89250639 152.84551382 58.55859375 153.63671875 C35.54358964 154.17061918 16.46750301 147.92245793 -0.49609375 132.1328125 C-18.42322063 113.25001157 -22.30403144 90.9215432 -21.93359375 65.8203125 C-21.91849794 64.01433426 -21.90481832 62.2083436 -21.89257812 60.40234375 C-21.86001015 56.04135162 -21.80850782 51.68097536 -21.74609375 47.3203125 C-22.69532715 47.01939697 -23.64456055 46.71848145 -24.62255859 46.40844727 C-30.54528741 44.34516742 -34.3278494 39.6747089 -37.18359375 34.1953125 C-39.74143596 27.67837539 -40.08502649 20.40498287 -37.8984375 13.734375 C-34.49209124 6.96787023 -29.07918836 2.66862916 -22.99609375 -1.6171875 C-15.25833982 -4.14683782 -7.35107834 -3.37465233 0 0 Z " fill="#623275" transform="translate(203.74609375,193.6796875)"/>
<path d="M0 0 C6.98166567 0.82379536 13.77636797 2.44076149 20.625 4 C21.29050873 4.15072968 21.95601746 4.30145935 22.64169312 4.45675659 C35.63065906 7.4011011 48.56989336 10.54189708 61.50512695 13.71264648 C74.64277113 16.93071081 87.80849932 20.009497 101 23 C99.62507637 33.71319507 97.17793425 44.03615634 94.5625 54.5 C93.96529188 56.91067267 93.3697032 59.32174037 92.77450562 61.73291016 C92.38925188 63.292717 92.00305903 64.85229222 91.61587524 66.41162109 C90.20001509 72.12900509 88.87017282 77.86108522 87.59350586 83.61132812 C87 86 87 86 86 88 C69.5 88 53 88 36 88 C33.93565029 81.80695087 32.13776612 75.82753936 30.6875 69.5 C30.2568928 67.65616066 29.82588523 65.81241478 29.39453125 63.96875 C29.16975098 63.00324219 28.9449707 62.03773438 28.71337891 61.04296875 C27.20656692 54.61555444 25.65319761 48.19901396 24.09277344 41.78442383 C23.03659369 37.42374397 21.98650552 33.07257317 21.12890625 28.66796875 C20.90074219 27.51941406 20.67257812 26.37085937 20.4375 25.1875 C20.27121094 24.25292969 20.10492188 23.31835938 19.93359375 22.35546875 C18.64450094 19.10307141 16.94141246 17.82925797 14 16 C11.85570296 15.69264032 11.85570296 15.69264032 9.75 16.1875 C8.98300781 16.31382813 8.21601563 16.44015625 7.42578125 16.5703125 C6.62527344 16.71210937 5.82476562 16.85390625 5 17 C3.31381453 17.19897499 1.62628732 17.3869725 -0.0625 17.5625 C-1.361875 17.706875 -2.66125 17.85125 -4 18 C-3.7159949 15.93643105 -3.42246648 13.8741715 -3.125 11.8125 C-2.96257812 10.66394531 -2.80015625 9.51539062 -2.6328125 8.33203125 C-2.05939755 5.31275375 -1.25240957 2.79424152 0 0 Z " fill="#E93357" transform="translate(292,68)"/>
<path d="M0 0 C1.6673669 4.80414847 3.02863541 9.64613816 4.3125 14.5625 C4.52616211 15.37879883 4.73982422 16.19509766 4.95996094 17.03613281 C6.61852031 23.42582359 8.20634185 29.8316319 9.75 36.25 C9.96052002 37.11826416 10.17104004 37.98652832 10.38793945 38.88110352 C10.58476318 39.70924561 10.78158691 40.5373877 10.984375 41.390625 C11.15678711 42.11282227 11.32919922 42.83501953 11.50683594 43.57910156 C12.14150033 46.69461251 12.55035108 49.85245759 13 53 C-29.9 53 -72.8 53 -117 53 C-123 31 -123 31 -123 29 C-102.90210796 23.23320558 -82.54636574 18.66120154 -62.17739868 13.97000122 C-34.91521013 7.78844099 -34.91521013 7.78844099 -7.890625 0.6640625 C-5.14378279 0.03303118 -2.80500247 -0.13505567 0 0 Z " fill="#00E5FE" transform="translate(297,103)"/>
<path d="M0 0 C9.57565315 6.25259544 19.66135963 15.36729989 22.91015625 26.71875 C23.02359375 27.28207031 23.13703125 27.84539063 23.25390625 28.42578125 C18.59134767 28.06928784 14.18749408 27.70421972 9.69140625 26.36328125 C5.58547984 25.24348314 1.46237702 24.50785232 -2.74609375 25.42578125 C-6.07981602 28.22243942 -7.35751922 30.40088048 -8.34375 34.609375 C-8.58617432 35.61403809 -8.82859863 36.61870117 -9.07836914 37.65380859 C-9.31934326 38.71293457 -9.56031738 39.77206055 -9.80859375 40.86328125 C-10.06825928 41.9404541 -10.3279248 43.01762695 -10.59545898 44.12744141 C-11.68524143 48.67934985 -12.73211874 53.23252028 -13.62109375 57.828125 C-13.84796875 58.97410156 -14.07484375 60.12007813 -14.30859375 61.30078125 C-14.47488281 62.26757812 -14.64117187 63.234375 -14.8125 64.23046875 C-15.74609375 66.42578125 -15.74609375 66.42578125 -18.0234375 67.74609375 C-20.72736152 68.42110491 -22.97573243 68.47629397 -25.74609375 68.42578125 C-25.88708496 67.14638672 -26.02807617 65.86699219 -26.17333984 64.54882812 C-26.70521439 59.725294 -27.23862534 54.90193073 -27.77246094 50.07861328 C-28.00171024 48.00541619 -28.23056285 45.93217518 -28.45898438 43.85888672 C-29.00676919 38.88797977 -29.56042676 33.9179157 -30.12792969 28.94921875 C-30.5234527 25.47762247 -30.8876027 22.00591387 -31.21582031 18.52734375 C-31.36385652 17.08723179 -31.51196314 15.64712707 -31.66015625 14.20703125 C-31.77568848 12.98048828 -31.8912207 11.75394531 -32.01025391 10.49023438 C-32.87649109 6.88273302 -33.71657272 5.54819415 -36.74609375 3.42578125 C-39.44436907 2.87834409 -39.44436907 2.87834409 -42.38671875 3.03515625 C-43.45664063 3.04804688 -44.5265625 3.0609375 -45.62890625 3.07421875 C-47.29566406 3.12449219 -47.29566406 3.12449219 -48.99609375 3.17578125 C-50.12273437 3.19382812 -51.249375 3.211875 -52.41015625 3.23046875 C-55.18966271 3.27757903 -57.96744715 3.34334764 -60.74609375 3.42578125 C-58.33587768 0.91391393 -56.1293869 -0.58466826 -52.99609375 -2.13671875 C-52.17625 -2.55050781 -51.35640625 -2.96429687 -50.51171875 -3.390625 C-34.71071175 -10.15292037 -14.73675046 -8.44795225 0 0 Z " fill="#FCE301" transform="translate(284.74609375,24.57421875)"/>
<path d="M0 0 C4.96933636 -1.03110149 9.07238133 -1.35087365 14 0 C18.0697682 3.75084475 20.44087593 8.95373745 22.87548828 13.84765625 C24.42081698 16.8054543 26.22548024 19.56990888 28.06225586 22.35351562 C29 24 29 24 29 26 C17.45 26 5.9 26 -6 26 C-4.74579768 19.72898838 -3.45865956 13.55713768 -1.875 7.375 C-1.69324219 6.65699219 -1.51148438 5.93898437 -1.32421875 5.19921875 C-0.88503086 3.46558234 -0.44285005 1.73270455 0 0 Z " fill="#E7E6E8" transform="translate(402,130)"/>
<path d="M0 0 C1.32 0 2.64 0 4 0 C4.33794471 3.02038089 4.67048433 6.04119756 5 9.0625 C5.09539062 9.91005859 5.19078125 10.75761719 5.2890625 11.63085938 C5.37929687 12.46552734 5.46953125 13.30019531 5.5625 14.16015625 C5.68818359 15.29916382 5.68818359 15.29916382 5.81640625 16.46118164 C6.04578196 19.63309385 6 22.819805 6 26 C-0.93 26 -7.86 26 -15 26 C-13.54619087 22.36547718 -12.20140609 19.46447609 -10.21484375 16.171875 C-9.68439453 15.29015625 -9.15394531 14.4084375 -8.60742188 13.5 C-8.05634766 12.5925 -7.50527344 11.685 -6.9375 10.75 C-6.38255859 9.82703125 -5.82761719 8.9040625 -5.25585938 7.953125 C-1.1474084 1.1474084 -1.1474084 1.1474084 0 0 Z " fill="#E6E4E6" transform="translate(96,130)"/>
<path d="M0 0 C2.4375 1.5625 2.4375 1.5625 4 4 C4.32168155 6.75802374 4.1862691 9.20596357 4 12 C3.154375 11.484375 2.30875 10.96875 1.4375 10.4375 C-2.64355254 8.73087803 -4.75077047 8.95773615 -9 10 C-9.99 10.66 -10.98 11.32 -12 12 C-12.75 8.8125 -12.75 8.8125 -13 5 C-9.25333712 -0.9429825 -6.7508412 -1.51311958 0 0 Z " fill="#F5F2F6" transform="translate(195,209)"/>
<path d="M0 0 C4.36401801 1.12862535 6.05353059 2.24101272 8.625 5.9375 C8.4375 9.75 8.4375 9.75 7.625 12.9375 C6.944375 12.4425 6.26375 11.9475 5.5625 11.4375 C1.95667301 9.59622664 -0.36982745 9.5733934 -4.375 9.9375 C-6.72869807 10.81814927 -6.72869807 10.81814927 -8.375 11.9375 C-9.38897631 8.71121174 -9.57740769 7.37267654 -8.125 4.25 C-5.59843526 0.91132516 -4.23465296 -0.0784195 0 0 Z " fill="#F4F1F5" transform="translate(321.375,208.0625)"/>
</svg>
